<?xml version="1.0" encoding="UTF-8"?>
<svg version="1.1" xmlns="http://www.w3.org/2000/svg" width="50" height="50">
<path d="M0 0 C1.37152222 -0.00945648 1.37152222 -0.00945648 2.77075195 -0.019104 C3.76034912 -0.01505554 4.74994629 -0.01100708 5.76953125 -0.00683594 C6.78297607 -0.00874939 7.7964209 -0.01066284 8.84057617 -0.01263428 C10.98584237 -0.01399685 13.13111678 -0.01029541 15.27636719 -0.00195312 C18.56854697 0.00874524 21.86018103 -0.00184613 25.15234375 -0.01464844 C27.23307413 -0.01332686 29.31380416 -0.01076449 31.39453125 -0.00683594 C32.38412842 -0.0108844 33.37372559 -0.01493286 34.39331055 -0.019104 C35.30765869 -0.01279968 36.22200684 -0.00649536 37.1640625 0 C38.37412964 0.00238678 38.37412964 0.00238678 39.60864258 0.00482178 C41.58203125 0.25878906 41.58203125 0.25878906 43.58203125 2.25878906 C44.06306372 5.82085472 43.9524276 9.41794493 43.95703125 13.00878906 C43.98152344 13.99878906 44.00601563 14.98878906 44.03125 16.00878906 C44.05522414 21.98634132 43.83291218 25.85979381 39.58203125 30.25878906 C37.44140625 30.84472656 37.44140625 30.84472656 35.33203125 30.63378906 C34.09453125 30.51003906 32.85703125 30.38628906 31.58203125 30.25878906 C31.58203125 29.59878906 31.58203125 28.93878906 31.58203125 28.25878906 C32.90203125 27.92878906 34.22203125 27.59878906 35.58203125 27.25878906 C24.36203125 27.25878906 13.14203125 27.25878906 1.58203125 27.25878906 C2.90203125 27.58878906 4.22203125 27.91878906 5.58203125 28.25878906 C5.58203125 28.91878906 5.58203125 29.57878906 5.58203125 30.25878906 C4.34453125 30.38253906 3.10703125 30.50628906 1.83203125 30.63378906 C1.1359375 30.70339844 0.43984375 30.77300781 -0.27734375 30.84472656 C-3.04045576 30.08840028 -4.19638928 28.71210755 -5.65039062 26.28662109 C-7.26535051 22.02012719 -6.90422625 17.50593427 -6.79296875 13.00878906 C-6.79167969 12.00332031 -6.79039062 10.99785156 -6.7890625 9.96191406 C-6.66871459 0.01315361 -6.66871459 0.01315361 0 0 Z M31.58203125 6.25878906 C30.83277054 9.92184141 30.34402985 12.68234058 31.58203125 16.25878906 C32.24203125 16.25878906 32.90203125 16.25878906 33.58203125 16.25878906 C34.33129196 12.59573672 34.82003265 9.83523755 33.58203125 6.25878906 C32.92203125 6.25878906 32.26203125 6.25878906 31.58203125 6.25878906 Z M-3.41796875 22.25878906 C-3.08796875 22.91878906 -2.75796875 23.57878906 -2.41796875 24.25878906 C11.44203125 24.25878906 25.30203125 24.25878906 39.58203125 24.25878906 C39.91203125 23.59878906 40.24203125 22.93878906 40.58203125 22.25878906 C26.06203125 22.25878906 11.54203125 22.25878906 -3.41796875 22.25878906 Z " fill="#11B886" transform="translate(6.41796875,-0.2587890625)"/>
<path d="M0 0 C1.32 0 2.64 0 4 0 C4 1.32 4 2.64 4 4 C2.68 4 1.36 4 0 4 C0 2.68 0 1.36 0 0 Z " fill="#11B785" transform="translate(39,46)"/>
<path d="M0 0 C1.32 0 2.64 0 4 0 C4 1.32 4 2.64 4 4 C2.68 4 1.36 4 0 4 C0 2.68 0 1.36 0 0 Z " fill="#11B785" transform="translate(23,46)"/>
<path d="M0 0 C1.32 0 2.64 0 4 0 C4 1.32 4 2.64 4 4 C2.68 4 1.36 4 0 4 C0 2.68 0 1.36 0 0 Z " fill="#11B785" transform="translate(7,46)"/>
<path d="M0 0 C1.32 0 2.64 0 4 0 C4 1.32 4 2.64 4 4 C2.68 4 1.36 4 0 4 C0 2.68 0 1.36 0 0 Z " fill="#11B785" transform="translate(35,40)"/>
<path d="M0 0 C1.32 0 2.64 0 4 0 C4 1.32 4 2.64 4 4 C2.68 4 1.36 4 0 4 C0 2.68 0 1.36 0 0 Z " fill="#11B785" transform="translate(23,40)"/>
<path d="M0 0 C1.32 0 2.64 0 4 0 C4 1.32 4 2.64 4 4 C2.68 4 1.36 4 0 4 C0 2.68 0 1.36 0 0 Z " fill="#11B785" transform="translate(11,40)"/>
<path d="M0 0 C1.32 0 2.64 0 4 0 C4 1.32 4 2.64 4 4 C2.68 4 1.36 4 0 4 C0 2.68 0 1.36 0 0 Z " fill="#11B785" transform="translate(33,34)"/>
<path d="M0 0 C1.32 0 2.64 0 4 0 C4 1.32 4 2.64 4 4 C2.68 4 1.36 4 0 4 C0 2.68 0 1.36 0 0 Z " fill="#11B785" transform="translate(23,34)"/>
<path d="M0 0 C1.32 0 2.64 0 4 0 C4 1.32 4 2.64 4 4 C2.68 4 1.36 4 0 4 C0 2.68 0 1.36 0 0 Z " fill="#11B785" transform="translate(13,34)"/>
<path d="M0 0 C1.32 0 2.64 0 4 0 C4 1.32 4 2.64 4 4 C2.68 4 1.36 4 0 4 C0 2.68 0 1.36 0 0 Z " fill="#11B785" transform="translate(32,28)"/>
<path d="M0 0 C1.32 0 2.64 0 4 0 C4 1.32 4 2.64 4 4 C2.68 4 1.36 4 0 4 C0 2.68 0 1.36 0 0 Z " fill="#11B785" transform="translate(23,28)"/>
<path d="M0 0 C1.32 0 2.64 0 4 0 C4 1.32 4 2.64 4 4 C2.68 4 1.36 4 0 4 C0 2.68 0 1.36 0 0 Z " fill="#11B785" transform="translate(14,28)"/>
</svg>
