<?xml version="1.0" encoding="UTF-8"?>
<svg version="1.1" xmlns="http://www.w3.org/2000/svg" width="50" height="50">
<path d="M0 0 C14.52 0 29.04 0 44 0 C44 6.6 44 13.2 44 20 C39.05 20.33 34.1 20.66 29 21 C32.96 21.33 36.92 21.66 41 22 C41 28.6 41 35.2 41 42 C36.05 42 31.1 42 26 42 C25.65820312 37.80078125 25.65820312 37.80078125 25.31640625 33.6015625 C25.15034374 31.02072387 25.15034374 31.02072387 24 29 C22.68 29 21.36 29 20 29 C18.71553081 31.56893838 18.67022856 33.76576337 18.4375 36.625 C18.293125 38.39875 18.14875 40.1725 18 42 C13.05 42 8.1 42 3 42 C3 35.4 3 28.8 3 22 C6.96 21.67 10.92 21.34 15 21 C10.05 20.67 5.1 20.34 0 20 C0 13.4 0 6.8 0 0 Z M19 13 C20 15 20 15 20 15 Z M24 13 C25 15 25 15 25 15 Z M17 16 C18 18 18 18 18 18 Z M26 16 C27 18 27 18 27 18 Z M8 27 C8 29.31 8 31.62 8 34 C9.98 34 11.96 34 14 34 C14 31.69 14 29.38 14 27 C12.02 27 10.04 27 8 27 Z M30 27 C30 29.31 30 31.62 30 34 C31.98 34 33.96 34 36 34 C36 31.69 36 29.38 36 27 C34.02 27 32.04 27 30 27 Z " fill="#11B786" transform="translate(3,4)"/>
</svg>
