<?xml version="1.0" encoding="UTF-8"?>
<svg version="1.1" xmlns="http://www.w3.org/2000/svg" width="50" height="50">
<path d="M0 0 C1.794375 -0.02320313 1.794375 -0.02320313 3.625 -0.046875 C7.05855443 0.76382535 9.00115646 1.58338298 11.10644531 4.48095703 C13.26552189 9.96359575 12.53318665 16.25488658 12.375 22.0625 C12.35847695 23.47198113 12.34413299 24.8814896 12.33203125 26.29101562 C12.19642675 36.55357325 12.19642675 36.55357325 11 37.75 C9.37742456 37.8491657 7.75060169 37.88079777 6.125 37.8828125 C5.14015625 37.88410156 4.1553125 37.88539062 3.140625 37.88671875 C2.10421875 37.88285156 1.0678125 37.87898438 0 37.875 C-1.55460937 37.88080078 -1.55460937 37.88080078 -3.140625 37.88671875 C-4.12546875 37.88542969 -5.1103125 37.88414063 -6.125 37.8828125 C-7.03507813 37.88168457 -7.94515625 37.88055664 -8.8828125 37.87939453 C-11 37.75 -11 37.75 -12 36.75 C-12.29100893 32.56720706 -12.31410985 28.37837448 -12.35009766 24.18676758 C-12.36659626 22.77937208 -12.39380612 21.37205827 -12.43212891 19.96508789 C-12.78891465 6.79659153 -12.78891465 6.79659153 -9.9140625 2.83984375 C-6.35273092 0.28580568 -4.36105604 -0.05639297 0 0 Z " fill="#11B786" transform="translate(21,12.25)"/>
<path d="M0 0 C2.48020497 0.11341491 4.95844969 0.24014686 7.4375 0.375 C8.14455078 0.4059375 8.85160156 0.436875 9.58007812 0.46875 C11.39239188 0.57280629 13.19817988 0.77919892 15 1 C16.71466036 4.42932071 16.05404056 8.21716065 16 12 C12.37 12 8.74 12 5 12 C5 11.01 5 10.02 5 9 C0.49556115 10.3391575 -0.7664425 11.95832452 -3 16 C-3.66 16 -4.32 16 -5 16 C-4.25 9.25 -4.25 9.25 -2 7 C-1.28072705 4.68234271 -0.6090107 2.34904126 0 0 Z M2 3 C2 3.66 2 4.32 2 5 C2.66 5 3.32 5 4 5 C4 4.34 4 3.68 4 3 C3.34 3 2.68 3 2 3 Z " fill="#12B785" transform="translate(11,0)"/>
<path d="M0 0 C0 4.29 0 8.58 0 13 C-12.64616797 12.23818265 -12.64616797 12.23818265 -16 9 C-16.625 6.5 -16.625 6.5 -16 4 C-10.9582664 -0.03338688 -6.30133486 0 0 0 Z " fill="#11B786" transform="translate(44,1)"/>
</svg>
