<?xml version="1.0" encoding="UTF-8"?>
<svg version="1.1" xmlns="http://www.w3.org/2000/svg" width="50" height="50">
<path d="M0 0 C3.1875 1.625 3.1875 1.625 5 4 C5.75 7.1875 5.75 7.1875 6 10 C6.33 10.33 6.66 10.66 7 11 C7 9.02 7 7.04 7 5 C11.30481427 2.30949108 14.20525483 1.57989429 19.09765625 2.40625 C21.9598025 3.29956875 23.87310641 4.93957184 26 7 C25.49697411 11.40147657 23.97554199 13.75395419 21 17 C18.75487738 18.12256131 17.48543351 18.13413762 15 18.125 C13.948125 18.12886719 13.948125 18.12886719 12.875 18.1328125 C11 18 11 18 9 17 C8.34 18.98 7.68 20.96 7 23 C6.01 22.67 5.02 22.34 4 22 C2.8125 18.9375 2.8125 18.9375 2 16 C1.34 16.66 0.68 17.32 0 18 C-3.38523529 18.56027413 -6.61100046 18.52180706 -10 18 C-13.93410336 14.77201776 -15.66194131 9.84539433 -17 5 C-17 4.01 -17 3.02 -17 2 C-11.38316101 -0.58126792 -6.08840978 -0.67368296 0 0 Z M14 8 C14 8.33 14 8.66 14 9 C15.98 9 17.96 9 20 9 C20 8.67 20 8.34 20 8 C18.02 8 16.04 8 14 8 Z " fill="#11B786" transform="translate(17,27)"/>
<path d="M0 0 C3.94356121 1.01446683 5.08088734 3.1173681 7.15625 6.5546875 C7.54124891 8.21018281 7.88418135 9.8769308 8.15625 11.5546875 C8.6925 12.0496875 9.22875 12.5446875 9.78125 13.0546875 C10.235 13.5496875 10.68875 14.0446875 11.15625 14.5546875 C10.72664879 19.87995248 8.07733919 22.41156097 4.328125 25.94140625 C2.15625 27.5546875 2.15625 27.5546875 -1.21875 28.1796875 C-3.013125 27.8703125 -3.013125 27.8703125 -4.84375 27.5546875 C-5.71 27.40902344 -6.57625 27.26335938 -7.46875 27.11328125 C-14.56537045 25.83306705 -14.56537045 25.83306705 -15.84375 24.5546875 C-15.88438832 22.88851635 -15.886471 21.22080655 -15.84375 19.5546875 C-14.19375 19.2246875 -12.54375 18.8946875 -10.84375 18.5546875 C-11.00875 17.9359375 -11.17375 17.3171875 -11.34375 16.6796875 C-11.84375 14.5546875 -11.84375 14.5546875 -11.84375 12.5546875 C-11.946875 11.4615625 -12.05 10.3684375 -12.15625 9.2421875 C-11.84375 5.5546875 -11.84375 5.5546875 -9.90625 2.6171875 C-6.34168946 0.2165651 -4.2284436 -0.2396118 0 0 Z M-7.71875 4.7421875 C-9.19156139 7.11505029 -9.06598194 8.81382694 -8.84375 11.5546875 C-7.71786986 10.59738834 -6.5930785 9.63880855 -5.46875 8.6796875 C-4.84226562 8.14601563 -4.21578125 7.61234375 -3.5703125 7.0625 C-2.28538349 5.94036743 -1.05003025 4.76096775 0.15625 3.5546875 C-3.9898381 3.20690578 -3.9898381 3.20690578 -7.71875 4.7421875 Z M3.15625 6.5546875 C2.82625 7.2146875 2.49625 7.8746875 2.15625 8.5546875 C3.14625 8.2246875 4.13625 7.8946875 5.15625 7.5546875 C4.49625 7.2246875 3.83625 6.8946875 3.15625 6.5546875 Z " fill="#11B786" transform="translate(38.84375,-0.5546875)"/>
</svg>
