<?xml version="1.0" encoding="UTF-8"?>
<svg version="1.1" xmlns="http://www.w3.org/2000/svg" width="50" height="50">
<path d="M0 0 C0.185625 1.0725 0.37125 2.145 0.5625 3.25 C1.52959534 7.31896409 3.35107133 10.25871557 5.625 13.75 C9.34310446 19.88215558 10.33869069 24.93003978 9 32 C7.48279801 35.76382801 5.39574077 37.73617282 2 40 C0.68 40 -0.64 40 -2 40 C-1.835 39.319375 -1.67 38.63875 -1.5 37.9375 C-0.92910941 34.5835178 -0.93340977 31.39610195 -1 28 C-1.61875 27.896875 -2.2375 27.79375 -2.875 27.6875 C-5 27 -5 27 -7 24 C-7.39013716 22.0103005 -7.73202649 20.00980131 -8 18 C-10.97043453 22.4556518 -10.51539873 26.77131724 -10 32 C-8.65253476 35.45346148 -8.65253476 35.45346148 -7 38 C-7 38.66 -7 39.32 -7 40 C-12.2688427 39.58675744 -15.22944438 38.77055562 -19 35 C-22.07133141 30.04028814 -21.77682587 24.62505162 -21 19 C-17.83390173 10.77047252 -9.3912573 0 0 0 Z " fill="#11B886" transform="translate(30,0)"/>
<path d="M0 0 C11.22 0 22.44 0 34 0 C34 2.64 34 5.28 34 8 C22.78 8 11.56 8 0 8 C0 5.36 0 2.72 0 0 Z " fill="#12B785" transform="translate(8,42)"/>
</svg>
