<?xml version="1.0" encoding="UTF-8"?>
<svg version="1.1" xmlns="http://www.w3.org/2000/svg" width="50" height="50">
<path d="M0 0 C5.33097815 1.06619563 6.16784245 1.72338952 9.6875 5.5 C12.5285757 8.67196677 12.5285757 8.67196677 16 11 C16 21.56 16 32.12 16 43 C10.72 43 5.44 43 0 43 C0 28.81 0 14.62 0 0 Z M3 26 C3 26.66 3 27.32 3 28 C3.66 28 4.32 28 5 28 C5 27.34 5 26.68 5 26 C4.34 26 3.68 26 3 26 Z " fill="#11B786" transform="translate(26,2)"/>
<path d="M0 0 C0 14.19 0 28.38 0 43 C-4.95 43 -9.9 43 -15 43 C-15.23166163 38.61902113 -15.42968697 34.2597068 -15.54931641 29.87744141 C-15.5991953 28.39298127 -15.66713623 26.90900207 -15.75439453 25.42626953 C-16.45834138 13.14446738 -16.45834138 13.14446738 -12.79980469 7.76464844 C-5.1126091 0 -5.1126091 0 0 0 Z M-5 26 C-5 26.66 -5 27.32 -5 28 C-4.34 28 -3.68 28 -3 28 C-3 27.34 -3 26.68 -3 26 C-3.66 26 -4.32 26 -5 26 Z " fill="#11B785" transform="translate(24,2)"/>
<path d="M0 0 C0.99 0.33 1.98 0.66 3 1 C3 11.89 3 22.78 3 34 C1.35 34 -0.3 34 -2 34 C-2 23.11 -2 12.22 -2 1 C-1.34 0.67 -0.68 0.34 0 0 Z " fill="#11B786" transform="translate(45,14)"/>
<path d="M0 0 C0.99 0.33 1.98 0.66 3 1 C3 11.89 3 22.78 3 34 C1.35 34 -0.3 34 -2 34 C-2 23.11 -2 12.22 -2 1 C-1.34 0.67 -0.68 0.34 0 0 Z " fill="#11B786" transform="translate(4,14)"/>
<path d="M0 0 C1.65 0 3.3 0 5 0 C5 1.65 5 3.3 5 5 C3.35 5 1.7 5 0 5 C0 3.35 0 1.7 0 0 Z " fill="#11B785" transform="translate(43,8)"/>
<path d="M0 0 C1.65 0 3.3 0 5 0 C5 1.65 5 3.3 5 5 C3.35 5 1.7 5 0 5 C0 3.35 0 1.7 0 0 Z " fill="#11B785" transform="translate(2,8)"/>
</svg>
