<?xml version="1.0" encoding="UTF-8"?>
<svg version="1.1" xmlns="http://www.w3.org/2000/svg" width="50" height="50">
<path d="M0 0 C3.40895248 1.37698988 6.07085899 3.43079409 8.89453125 5.73046875 C10.03984043 6.64258563 11.18567322 7.55404543 12.33203125 8.46484375 C13.16154297 9.1290332 13.16154297 9.1290332 14.0078125 9.80664062 C16.68780774 11.91140115 19.48586814 13.85283547 22.2890625 15.7890625 C22.71574219 16.20285156 23.14242187 16.61664062 23.58203125 17.04296875 C23.58203125 18.03296875 23.58203125 19.02296875 23.58203125 20.04296875 C22.59203125 20.04296875 21.60203125 20.04296875 20.58203125 20.04296875 C20.58203125 28.62296875 20.58203125 37.20296875 20.58203125 46.04296875 C6.72203125 46.04296875 -7.13796875 46.04296875 -21.41796875 46.04296875 C-21.41796875 37.46296875 -21.41796875 28.88296875 -21.41796875 20.04296875 C-22.40796875 20.04296875 -23.39796875 20.04296875 -24.41796875 20.04296875 C-24.41796875 19.05296875 -24.41796875 18.06296875 -24.41796875 17.04296875 C-22.93676758 15.57250977 -22.93676758 15.57250977 -20.875 14.046875 C-20.13056641 13.48806641 -19.38613281 12.92925781 -18.61914062 12.35351562 C-17.83087891 11.77666016 -17.04261719 11.19980469 -16.23046875 10.60546875 C-14.69504262 9.46129957 -13.1598799 8.31677683 -11.625 7.171875 C-10.8923291 6.63578613 -10.1596582 6.09969727 -9.40478516 5.54736328 C-7.23600528 3.95013604 -7.23600528 3.95013604 -4.6796875 1.5703125 C-2.41796875 0.04296875 -2.41796875 0.04296875 0 0 Z M-10.41796875 21.04296875 C-10.74796875 22.03296875 -11.07796875 23.02296875 -11.41796875 24.04296875 C-13.48046875 24.73046875 -13.48046875 24.73046875 -15.41796875 25.04296875 C-15.41796875 27.35296875 -15.41796875 29.66296875 -15.41796875 32.04296875 C-14.45890625 32.19765625 -14.45890625 32.19765625 -13.48046875 32.35546875 C-12.79984375 32.58234375 -12.11921875 32.80921875 -11.41796875 33.04296875 C-11.08796875 34.03296875 -10.75796875 35.02296875 -10.41796875 36.04296875 C-8.76796875 35.71296875 -7.11796875 35.38296875 -5.41796875 35.04296875 C-5.41796875 33.39296875 -5.41796875 31.74296875 -5.41796875 30.04296875 C-2.11796875 30.04296875 1.18203125 30.04296875 4.58203125 30.04296875 C4.58203125 31.69296875 4.58203125 33.34296875 4.58203125 35.04296875 C7.05703125 35.53796875 7.05703125 35.53796875 9.58203125 36.04296875 C9.91203125 35.05296875 10.24203125 34.06296875 10.58203125 33.04296875 C12.64453125 32.35546875 12.64453125 32.35546875 14.58203125 32.04296875 C14.58203125 29.73296875 14.58203125 27.42296875 14.58203125 25.04296875 C13.94265625 24.93984375 13.30328125 24.83671875 12.64453125 24.73046875 C11.62359375 24.39015625 11.62359375 24.39015625 10.58203125 24.04296875 C10.25203125 23.05296875 9.92203125 22.06296875 9.58203125 21.04296875 C7.93203125 21.37296875 6.28203125 21.70296875 4.58203125 22.04296875 C4.58203125 23.69296875 4.58203125 25.34296875 4.58203125 27.04296875 C1.28203125 27.04296875 -2.01796875 27.04296875 -5.41796875 27.04296875 C-5.41796875 25.39296875 -5.41796875 23.74296875 -5.41796875 22.04296875 C-7.06796875 21.71296875 -8.71796875 21.38296875 -10.41796875 21.04296875 Z " fill="#11B886" transform="translate(25.41796875,0.95703125)"/>
<path d="M0 0 C0.66 0 1.32 0 2 0 C2 3.63 2 7.26 2 11 C1.34 11 0.68 11 0 11 C0 7.37 0 3.74 0 0 Z " fill="#12B886" transform="translate(32,24)"/>
<path d="M0 0 C0.66 0 1.32 0 2 0 C2 3.63 2 7.26 2 11 C1.34 11 0.68 11 0 11 C0 7.37 0 3.74 0 0 Z " fill="#12B886" transform="translate(16,24)"/>
<path d="M0 0 C0.66 0 1.32 0 2 0 C2 1.65 2 3.3 2 5 C1.34 5 0.68 5 0 5 C0 3.35 0 1.7 0 0 Z " fill="#12B886" transform="translate(36,27)"/>
<path d="M0 0 C0.66 0 1.32 0 2 0 C2 1.65 2 3.3 2 5 C1.34 5 0.68 5 0 5 C0 3.35 0 1.7 0 0 Z " fill="#12B886" transform="translate(12,27)"/>
</svg>
