<?xml version="1.0" encoding="UTF-8"?>
<svg version="1.1" xmlns="http://www.w3.org/2000/svg" width="50" height="50">
<path d="M0 0 C2.33218272 0.84806644 3.44954313 1.8950996 5.0625 3.75 C5.3925 3.42 5.7225 3.09 6.0625 2.75 C8.01672866 2.59832852 9.97759729 2.52820004 11.9375 2.5 C13.54238281 2.46132812 13.54238281 2.46132812 15.1796875 2.421875 C18.0625 2.75 18.0625 2.75 19.83984375 3.90234375 C21.47405082 6.37192824 22.06576225 8.6843571 22.75 11.5625 C23.00136719 12.57957031 23.25273437 13.59664062 23.51171875 14.64453125 C24.06243844 17.74965292 24.16125956 20.60380252 24.0625 23.75 C24.68125 23.853125 25.3 23.95625 25.9375 24.0625 C28.0625 24.75 28.0625 24.75 30.0625 27.75 C28.7425 29.07 27.4225 30.39 26.0625 31.75 C23.0625 30.75 23.0625 30.75 21.0625 27.75 C19.7425 27.75 18.4225 27.75 17.0625 27.75 C17.0625 32.04 17.0625 36.33 17.0625 40.75 C13.4325 40.75 9.8025 40.75 6.0625 40.75 C6.0625 36.46 6.0625 32.17 6.0625 27.75 C4.4125 27.75 2.7625 27.75 1.0625 27.75 C1.61105348 23.178721 2.47994803 19.07564205 4.0625 14.75 C3.0725 14.75 2.0825 14.75 1.0625 14.75 C-2.0297885 11.3179953 -3.84015492 7.84026492 -4.25 3.25 C-4.146875 2.425 -4.04375 1.6 -3.9375 0.75 C-1.9375 -0.25 -1.9375 -0.25 0 0 Z " fill="#11B886" transform="translate(3.9375,9.25)"/>
<path d="M0 0 C0.67353516 0.08958984 1.34707031 0.17917969 2.04101562 0.27148438 C2.73388672 0.34173828 3.42675781 0.41199219 4.140625 0.484375 C5.83926046 0.66009591 7.53443203 0.86876118 9.22851562 1.08398438 C7.4870009 4.86395413 5.25050315 7.20941087 2.22851562 10.08398438 C1.73351563 10.68210937 1.23851562 11.28023437 0.72851562 11.89648438 C-0.77148438 13.08398438 -0.77148438 13.08398438 -3.20898438 13.52148438 C-6.59035291 12.94417755 -7.68793106 11.76283864 -9.77148438 9.08398438 C-10.83398438 7.14648438 -10.83398438 7.14648438 -10.77148438 5.08398438 C-7.51923382 0.82328403 -5.42217362 -0.50254292 0 0 Z " fill="#11B886" transform="translate(39.771484375,36.916015625)"/>
<path d="M0 0 C2 2 2 2 2.25 5.5 C2 9 2 9 0 11 C-4.28359106 11.49426051 -6.56736716 11.22024945 -10.4375 9.25 C-11.283125 8.5075 -12.12875 7.765 -13 7 C-13 5.68 -13 4.36 -13 3 C-8.89040849 -0.59589257 -5.18787084 -0.42523531 0 0 Z " fill="#11B785" transform="translate(20,0)"/>
<path d="M0 0 C1.98 0 3.96 0 6 0 C6 1.98 6 3.96 6 6 C4.02 6 2.04 6 0 6 C0 4.02 0 2.04 0 0 Z " fill="#0FB684" transform="translate(44,29)"/>
<path d="M0 0 C0.99 0 1.98 0 3 0 C3 0.99 3 1.98 3 3 C2.01 3 1.02 3 0 3 C0 2.01 0 1.02 0 0 Z " fill="#11B785" transform="translate(39,33)"/>
</svg>
