<?xml version="1.0" encoding="UTF-8"?>
<svg version="1.1" xmlns="http://www.w3.org/2000/svg" width="50" height="50">
<path d="M0 0 C6.12274216 3.14913382 10.05196347 7.5230779 12.25390625 14.12890625 C12.34919448 16.46066539 12.38376813 18.79520599 12.37890625 21.12890625 C12.38277344 22.98515625 12.38277344 22.98515625 12.38671875 24.87890625 C12.25390625 28.12890625 12.25390625 28.12890625 11.25390625 31.12890625 C11.91390625 31.54140625 12.57390625 31.95390625 13.25390625 32.37890625 C13.91390625 32.95640625 14.57390625 33.53390625 15.25390625 34.12890625 C15.25390625 35.44890625 15.25390625 36.76890625 15.25390625 38.12890625 C13.93390625 38.12890625 12.61390625 38.12890625 11.25390625 38.12890625 C11.74890625 41.59390625 11.74890625 41.59390625 12.25390625 45.12890625 C9.28390625 45.62390625 9.28390625 45.62390625 6.25390625 46.12890625 C5.26390625 44.80890625 4.27390625 43.48890625 3.25390625 42.12890625 C1.93390625 42.78890625 0.61390625 43.44890625 -0.74609375 44.12890625 C-0.74609375 43.46890625 -0.74609375 42.80890625 -0.74609375 42.12890625 C-1.73609375 42.62390625 -1.73609375 42.62390625 -2.74609375 43.12890625 C-10.43923429 43.84407204 -17.28685718 44.02195474 -23.90625 39.6953125 C-28.5116125 35.77439878 -31.46934418 31.20478001 -32.01953125 25.08984375 C-32.24172063 17.24484939 -31.97286438 11.26808073 -26.74609375 5.12890625 C-19.35048686 -1.58701685 -9.5178628 -3.01917981 0 0 Z M-17.74609375 4.12890625 C-15.89884323 4.82050026 -15.89884323 4.82050026 -13.74609375 5.12890625 C-12.75609375 4.46890625 -11.76609375 3.80890625 -10.74609375 3.12890625 C-10.74609375 5.43890625 -10.74609375 7.74890625 -10.74609375 10.12890625 C-15.69609375 9.79890625 -20.64609375 9.46890625 -25.74609375 9.12890625 C-26.07609375 10.11890625 -26.40609375 11.10890625 -26.74609375 12.12890625 C-24.43609375 12.45890625 -22.12609375 12.78890625 -19.74609375 13.12890625 C-19.74609375 15.43890625 -19.74609375 17.74890625 -19.74609375 20.12890625 C-22.38609375 20.12890625 -25.02609375 20.12890625 -27.74609375 20.12890625 C-27.74609375 18.47890625 -27.74609375 16.82890625 -27.74609375 15.12890625 C-28.07609375 15.12890625 -28.40609375 15.12890625 -28.74609375 15.12890625 C-28.74609375 19.08890625 -28.74609375 23.04890625 -28.74609375 27.12890625 C-28.41609375 27.12890625 -28.08609375 27.12890625 -27.74609375 27.12890625 C-27.74609375 25.47890625 -27.74609375 23.82890625 -27.74609375 22.12890625 C-25.10609375 22.12890625 -22.46609375 22.12890625 -19.74609375 22.12890625 C-19.74609375 24.43890625 -19.74609375 26.74890625 -19.74609375 29.12890625 C-22.05609375 29.45890625 -24.36609375 29.78890625 -26.74609375 30.12890625 C-26.08609375 31.11890625 -25.42609375 32.10890625 -24.74609375 33.12890625 C-20.12609375 32.79890625 -15.50609375 32.46890625 -10.74609375 32.12890625 C-10.74609375 34.43890625 -10.74609375 36.74890625 -10.74609375 39.12890625 C-12.06609375 38.46890625 -13.38609375 37.80890625 -14.74609375 37.12890625 C-15.73609375 37.78890625 -16.72609375 38.44890625 -17.74609375 39.12890625 C-15.02067108 40.49161758 -12.78522101 40.29814226 -9.74609375 40.31640625 C-8.67359375 40.33058594 -7.60109375 40.34476563 -6.49609375 40.359375 C-3.60156279 40.41476411 -3.60156279 40.41476411 -1.74609375 38.12890625 C-3.59334427 37.43731224 -3.59334427 37.43731224 -5.74609375 37.12890625 C-6.73609375 37.78890625 -7.72609375 38.44890625 -8.74609375 39.12890625 C-8.74609375 36.81890625 -8.74609375 34.50890625 -8.74609375 32.12890625 C-6.10609375 32.12890625 -3.46609375 32.12890625 -0.74609375 32.12890625 C-1.07609375 31.13890625 -1.40609375 30.14890625 -1.74609375 29.12890625 C-4.05609375 29.45890625 -6.36609375 29.78890625 -8.74609375 30.12890625 C-8.74609375 27.48890625 -8.74609375 24.84890625 -8.74609375 22.12890625 C-3.13609375 22.12890625 2.47390625 22.12890625 8.25390625 22.12890625 C8.25390625 23.77890625 8.25390625 25.42890625 8.25390625 27.12890625 C8.58390625 27.12890625 8.91390625 27.12890625 9.25390625 27.12890625 C9.25390625 23.16890625 9.25390625 19.20890625 9.25390625 15.12890625 C8.92390625 15.12890625 8.59390625 15.12890625 8.25390625 15.12890625 C8.25390625 16.77890625 8.25390625 18.42890625 8.25390625 20.12890625 C5.61390625 20.12890625 2.97390625 20.12890625 0.25390625 20.12890625 C0.25390625 17.81890625 0.25390625 15.50890625 0.25390625 13.12890625 C3.71890625 12.63390625 3.71890625 12.63390625 7.25390625 12.12890625 C6.59390625 11.13890625 5.93390625 10.14890625 5.25390625 9.12890625 C0.63390625 9.45890625 -3.98609375 9.78890625 -8.74609375 10.12890625 C-8.74609375 7.81890625 -8.74609375 5.50890625 -8.74609375 3.12890625 C-7.42609375 3.78890625 -6.10609375 4.44890625 -4.74609375 5.12890625 C-3.75609375 4.46890625 -2.76609375 3.80890625 -1.74609375 3.12890625 C-4.47151642 1.76619492 -6.70696649 1.95967024 -9.74609375 1.94140625 C-10.81859375 1.92722656 -11.89109375 1.91304688 -12.99609375 1.8984375 C-15.89062471 1.84304839 -15.89062471 1.84304839 -17.74609375 4.12890625 Z M-27.74609375 13.12890625 C-26.74609375 15.12890625 -26.74609375 15.12890625 -26.74609375 15.12890625 Z M7.25390625 13.12890625 C8.25390625 15.12890625 8.25390625 15.12890625 8.25390625 15.12890625 Z M-27.74609375 27.12890625 C-26.74609375 29.12890625 -26.74609375 29.12890625 -26.74609375 29.12890625 Z M1.25390625 27.12890625 C1.25390625 30.75890625 1.25390625 34.38890625 1.25390625 38.12890625 C2.57390625 38.12890625 3.89390625 38.12890625 5.25390625 38.12890625 C7.00390625 40.12890625 7.00390625 40.12890625 8.25390625 42.12890625 C7.59805436 38.51898246 7.59805436 38.51898246 6.25390625 35.12890625 C7.57390625 34.79890625 8.89390625 34.46890625 10.25390625 34.12890625 C8.94404352 32.95927939 7.63094365 31.79327681 6.31640625 30.62890625 C5.58550781 29.97921875 4.85460938 29.32953125 4.1015625 28.66015625 C2.52553075 27.02255615 2.52553075 27.02255615 1.25390625 27.12890625 Z " fill="#10B888" transform="translate(33.74609375,2.87109375)"/>
<path d="M0 0 C2.64 0 5.28 0 8 0 C8 2.64 8 5.28 8 8 C5.66705225 8.04241723 3.33297433 8.04092937 1 8 C0 7 0 7 -0.0625 3.4375 C-0.041875 2.303125 -0.02125 1.16875 0 0 Z " fill="#11B785" transform="translate(15,25)"/>
<path d="M0 0 C2.33294775 -0.04241723 4.66702567 -0.04092937 7 0 C8 1 8 1 8.0625 4.5625 C8.041875 5.696875 8.02125 6.83125 8 8 C5.36 8 2.72 8 0 8 C0 5.36 0 2.72 0 0 Z " fill="#11B786" transform="translate(25,15)"/>
<path d="M0 0 C1.134375 0.020625 2.26875 0.04125 3.4375 0.0625 C3.4375 2.7025 3.4375 5.3425 3.4375 8.0625 C0.7975 8.0625 -1.8425 8.0625 -4.5625 8.0625 C-4.60491723 5.72955225 -4.60342937 3.39547433 -4.5625 1.0625 C-3.5625 0.0625 -3.5625 0.0625 0 0 Z " fill="#11B786" transform="translate(19.5625,14.9375)"/>
</svg>
