<?xml version="1.0" encoding="UTF-8"?>
<svg version="1.1" xmlns="http://www.w3.org/2000/svg" width="50" height="50">
<path d="M0 0 C5.94 0 11.88 0 18 0 C18 0.66 18 1.32 18 2 C17.34 2 16.68 2 16 2 C15.67 6.95 15.34 11.9 15 17 C11.04 17 7.08 17 3 17 C2.67 12.05 2.34 7.1 2 2 C1.34 2 0.68 2 0 2 C0 1.34 0 0.68 0 0 Z M7 4 C7 4.66 7 5.32 7 6 C8.32 6 9.64 6 11 6 C11 5.34 11 4.68 11 4 C9.68 4 8.36 4 7 4 Z " fill="#11B885" transform="translate(23,31)"/>
<path d="M0 0 C4.07655174 -0.47401764 5.58343751 -0.31020611 8.9375 2.1875 C11 5 11 5 10.8125 7.8125 C10.544375 8.534375 10.27625 9.25625 10 10 C9.01 10 8.02 10 7 10 C6.67 10.66 6.34 11.32 6 12 C3.36 12 0.72 12 -2 12 C-2.33 11.34 -2.66 10.68 -3 10 C-3.99 10 -4.98 10 -6 10 C-6.33 8.35 -6.66 6.7 -7 5 C-3.535 4.505 -3.535 4.505 0 4 C0 2.68 0 1.36 0 0 Z " fill="#11B785" transform="translate(30,17)"/>
<path d="M0 0 C3.6695155 0.28227042 5.15509411 1.36286226 8.25 3.25 C11.94523952 3.96923208 11.94523952 3.96923208 15.25 4.25 C15.25 5.24 15.25 6.23 15.25 7.25 C11.29 7.25 7.33 7.25 3.25 7.25 C3.25 9.23 3.25 11.21 3.25 13.25 C0.94 13.25 -1.37 13.25 -3.75 13.25 C-3.77686553 11.27090602 -3.79633375 9.29171029 -3.8125 7.3125 C-3.82410156 6.21035156 -3.83570313 5.10820312 -3.84765625 3.97265625 C-3.71560184 0.29097943 -3.66491984 0.33317453 0 0 Z " fill="#11B785" transform="translate(13.75,12.75)"/>
<path d="M0 0 C2.31 0 4.62 0 7 0 C7 6.6 7 13.2 7 20 C5.35 20 3.7 20 2 20 C2 15.05 2 10.1 2 5 C1.34 5 0.68 5 0 5 C0 3.35 0 1.7 0 0 Z " fill="#11B785" transform="translate(10,28)"/>
<path d="M0 0 C3.5 0.125 3.5 0.125 4.5 1.125 C4.625 4.625 4.625 4.625 4.5 8.125 C3.5 9.125 3.5 9.125 0 9.25 C-3.5 9.125 -3.5 9.125 -4.5 8.125 C-4.625 4.625 -4.625 4.625 -4.5 1.125 C-3.5 0.125 -3.5 0.125 0 0 Z " fill="#12B686" transform="translate(13.5,1.875)"/>
</svg>
