<?xml version="1.0" encoding="UTF-8"?>
<svg version="1.1" xmlns="http://www.w3.org/2000/svg" width="50" height="50">
<path d="M0 0 C16.5 0 33 0 50 0 C50 13.2 50 26.4 50 40 C33.5 40 17 40 0 40 C0 26.8 0 13.6 0 0 Z M9 5 C9 6.32 9 7.64 9 9 C10.32 9 11.64 9 13 9 C13 7.68 13 6.36 13 5 C11.68 5 10.36 5 9 5 Z M23 5 C23 6.32 23 7.64 23 9 C24.32 9 25.64 9 27 9 C27 7.68 27 6.36 27 5 C25.68 5 24.36 5 23 5 Z M37 5 C37 6.32 37 7.64 37 9 C38.32 9 39.64 9 41 9 C41 7.68 41 6.36 41 5 C39.68 5 38.36 5 37 5 Z M8 13 C6.00455663 17.11560195 5.73752861 20.45049584 6 25 C6.33 25.33 6.66 25.66 7 26 C7.23192865 27.51469448 7.41215238 29.03754562 7.5625 30.5625 C7.64628906 31.38878906 7.73007813 32.21507813 7.81640625 33.06640625 C7.90728516 34.02353516 7.90728516 34.02353516 8 35 C9.65614657 35.38218767 11.32457024 35.71395102 13 36 C14.57265794 34.42734206 14.30757977 32.67159971 14.5 30.5 C14.88888889 26.11111111 14.88888889 26.11111111 16 25 C16.26247139 20.45049584 15.99544337 17.11560195 14 13 C12.02 13 10.04 13 8 13 Z M22 13 C20.00455663 17.11560195 19.73752861 20.45049584 20 25 C20.33 25.33 20.66 25.66 21 26 C21.23192865 27.51469448 21.41215238 29.03754562 21.5625 30.5625 C21.64628906 31.38878906 21.73007812 32.21507813 21.81640625 33.06640625 C21.90728516 34.02353516 21.90728516 34.02353516 22 35 C23.65614657 35.38218767 25.32457024 35.71395102 27 36 C28.57265794 34.42734206 28.30757977 32.67159971 28.5 30.5 C28.88888889 26.11111111 28.88888889 26.11111111 30 25 C30.26247139 20.45049584 29.99544337 17.11560195 28 13 C26.02 13 24.04 13 22 13 Z M36 13 C34.00455663 17.11560195 33.73752861 20.45049584 34 25 C34.33 25.33 34.66 25.66 35 26 C35.23192865 27.51469448 35.41215238 29.03754562 35.5625 30.5625 C35.64628906 31.38878906 35.73007812 32.21507813 35.81640625 33.06640625 C35.90728516 34.02353516 35.90728516 34.02353516 36 35 C37.65614657 35.38218767 39.32457024 35.71395102 41 36 C42.57265794 34.42734206 42.30757977 32.67159971 42.5 30.5 C42.88888889 26.11111111 42.88888889 26.11111111 44 25 C44.26247139 20.45049584 43.99544337 17.11560195 42 13 C40.02 13 38.04 13 36 13 Z " fill="#11B886" transform="translate(0,10)"/>
<path d="M0 0 C3.96 0 7.92 0 12 0 C11.07377893 3.70488428 10.32789515 5.16604069 8 8 C4.89347355 7.6641593 3.39585697 7.40950721 1.1875 5.125 C0 3 0 3 0 0 Z " fill="#11B786" transform="translate(29,0)"/>
<path d="M0 0 C3.10652645 0.3358407 4.60414303 0.59049279 6.8125 2.875 C8 5 8 5 8 8 C4.04 8 0.08 8 -4 8 C-3.07377893 4.29511572 -2.32789515 2.83395931 0 0 Z " fill="#11B786" transform="translate(14,0)"/>
</svg>
