<?xml version="1.0" encoding="UTF-8"?>
<svg version="1.1" xmlns="http://www.w3.org/2000/svg" width="50" height="50">
<path d="M0 0 C3.23690718 1.27460631 5.40520852 2.81041704 7 6 C8.19490061 18.78089888 8.19490061 18.78089888 5.90625 23.03125 C-0.81386818 28.89348075 -10.18431968 28.33681485 -18.5 28.3125 C-19.60214844 28.32861328 -20.70429688 28.34472656 -21.83984375 28.36132812 C-28.00354794 28.36502783 -32.59340537 28.05234944 -38 25 C-40.85936856 22.14063144 -40.33391034 20.04408788 -40.375 16.0625 C-40.40335938 14.81597656 -40.43171875 13.56945312 -40.4609375 12.28515625 C-40 9 -40 9 -38.4296875 7.08203125 C-35.13172692 5.61332533 -32.35135062 5.66145092 -28.75 5.625 C-24.18271491 5.48605253 -20.61172805 5.30018651 -16.875 2.4375 C-11.8503823 -1.35300107 -6.00606745 -0.86580972 0 0 Z M-18 7 C-17.01 7.33 -16.02 7.66 -15 8 C-14.67 8.99 -14.34 9.98 -14 11 C-11.42672567 9.78969026 -11.42672567 9.78969026 -9 8 C-9 6.68 -9 5.36 -9 4 C-6.36 4 -3.72 4 -1 4 C-1 3.67 -1 3.34 -1 3 C-7.95230941 2.55465634 -12.59696035 2.32710084 -18 7 Z M3 7 C3 8.98 3 10.96 3 13 C3.33 13 3.66 13 4 13 C4 11.02 4 9.04 4 7 C3.67 7 3.34 7 3 7 Z M-35 9 C-35 9.33 -35 9.66 -35 10 C-34.32453125 10.06058594 -33.6490625 10.12117188 -32.953125 10.18359375 C-32.06109375 10.26738281 -31.1690625 10.35117187 -30.25 10.4375 C-29.36828125 10.51871094 -28.4865625 10.59992187 -27.578125 10.68359375 C-25.30649548 10.96238465 -23.20148177 11.38790577 -21 12 C-20.67 11.01 -20.34 10.02 -20 9 C-24.95 9 -29.9 9 -35 9 Z M-37 11 C-36 15 -36 15 -36 15 Z M-13 11 C-13.33 11.99 -13.66 12.98 -14 14 C-12.68 13.67 -11.36 13.34 -10 13 C-10.66 13 -11.32 13 -12 13 C-12.33 12.34 -12.66 11.68 -13 11 Z M-21 12 C-19.02 12.99 -19.02 12.99 -17 14 C-16.34 13.34 -15.68 12.68 -15 12 C-16.98 12 -18.96 12 -21 12 Z M-10 14 C-6 15 -6 15 -6 15 Z M-6 15 C-6.33 15.66 -6.66 16.32 -7 17 C-3.535 16.505 -3.535 16.505 0 16 C0 15.67 0 15.34 0 15 C-1.98 15 -3.96 15 -6 15 Z M-34 16 C-30 17 -30 17 -30 17 Z M-16 16 C-16 16.66 -16 17.32 -16 18 C-13.03 18 -10.06 18 -7 18 C-7 17.67 -7 17.34 -7 17 C-9.97 16.67 -12.94 16.34 -16 16 Z M-24 16 C-27.09926819 16.32198966 -27.09926819 16.32198966 -30 17 C-30 17.33 -30 17.66 -30 18 C-27.36 18 -24.72 18 -22 18 C-22.66 17.34 -23.32 16.68 -24 16 Z " fill="#11B886" transform="translate(41,15)"/>
<path d="M0 0 C0 1.32 0 2.64 0 4 C-1.32 4.33 -2.64 4.66 -4 5 C-4 3.68 -4 2.36 -4 1 C-2 0 -2 0 0 0 Z " fill="#10B784" transform="translate(31,19)"/>
</svg>
