<?xml version="1.0" encoding="UTF-8"?>
<svg version="1.1" xmlns="http://www.w3.org/2000/svg" width="50" height="50">
<path d="M0 0 C1.2219104 0.00607269 1.2219104 0.00607269 2.46850586 0.01226807 C3.30438232 0.01035461 4.14025879 0.00844116 5.00146484 0.00646973 C6.77010397 0.00510771 8.53875309 0.0088053 10.30737305 0.01715088 C13.02016579 0.02785031 15.7322963 0.01725631 18.44506836 0.00445557 C20.16121566 0.00577716 21.87736255 0.00833955 23.59350586 0.01226807 C24.40811279 0.0082196 25.22271973 0.00417114 26.06201172 0 C31.80108658 0.04797379 31.80108658 0.04797379 34.03100586 2.27789307 C34.23090813 5.12329449 34.31077562 7.8692709 34.29663086 10.71539307 C34.29950104 11.96920776 34.29950104 11.96920776 34.3024292 13.24835205 C34.30379121 15.01699118 34.30009362 16.78564029 34.29174805 18.55426025 C34.28104861 21.267053 34.29164262 23.9791835 34.30444336 26.69195557 C34.30312177 28.40810287 34.30055938 30.12424975 34.29663086 31.84039307 C34.30067932 32.655 34.30472778 33.46960693 34.30889893 34.30889893 C34.26092514 40.04797379 34.26092514 40.04797379 32.03100586 42.27789307 C29.18560444 42.47779534 26.43962802 42.55766282 23.59350586 42.54351807 C22.75762939 42.54543152 21.92175293 42.54734497 21.06054688 42.54931641 C19.29190775 42.55067842 17.52325863 42.54698083 15.75463867 42.53863525 C13.04184592 42.52793582 10.32971542 42.53852983 7.61694336 42.55133057 C5.90079606 42.55000897 4.18464917 42.54744659 2.46850586 42.54351807 C1.65389893 42.54756653 0.83929199 42.55161499 0 42.55578613 C-5.73907486 42.50781235 -5.73907486 42.50781235 -7.96899414 40.27789307 C-8.16889641 37.43249164 -8.2487639 34.68651523 -8.23461914 31.84039307 C-8.23653259 31.0045166 -8.23844604 30.16864014 -8.24041748 29.30743408 C-8.2417795 27.53879496 -8.2380819 25.77014584 -8.22973633 24.00152588 C-8.21903689 21.28873313 -8.2296309 18.57660263 -8.24243164 15.86383057 C-8.24111005 14.14768327 -8.23854766 12.43153638 -8.23461914 10.71539307 C-8.2386676 9.90078613 -8.24271606 9.0861792 -8.24688721 8.24688721 C-8.18797962 1.19980856 -7.04707865 0.05890759 0 0 Z M5.03100586 10.27789307 C5.03100586 17.53789307 5.03100586 24.79789307 5.03100586 32.27789307 C6.35100586 32.27789307 7.67100586 32.27789307 9.03100586 32.27789307 C9.03100586 29.63789307 9.03100586 26.99789307 9.03100586 24.27789307 C10.85631836 24.37070557 10.85631836 24.37070557 12.71850586 24.46539307 C16.6172837 24.45156761 19.01347546 23.92966221 22.03100586 21.27789307 C23.2007808 18.92916776 23.2007808 18.92916776 23.03100586 16.27789307 C21.89351391 13.49280991 21.89351391 13.49280991 20.03100586 11.27789307 C15.13031623 9.64432986 10.1736211 10.22259613 5.03100586 10.27789307 Z " fill="#11B785" transform="translate(11.968994140625,3.72210693359375)"/>
<path d="M0 0 C3.3 0 6.6 0 10 0 C10 1.98 10 3.96 10 6 C6.7 6 3.4 6 0 6 C0 4.02 0 2.04 0 0 Z " fill="#11B785" transform="translate(21,18)"/>
</svg>
