<?xml version="1.0" encoding="UTF-8"?>
<svg version="1.1" xmlns="http://www.w3.org/2000/svg" width="50" height="50">
<path d="M0 0 C1.32 0 2.64 0 4 0 C6.475 6.435 6.475 6.435 9 13 C9.33 12.34 9.66 11.68 10 11 C11.32 11 12.64 11 14 11 C15.50855339 14.6006459 17.00535824 18.20605959 18.5 21.8125 C18.92925781 22.83666016 19.35851563 23.86082031 19.80078125 24.91601562 C20.20683594 25.89892578 20.61289062 26.88183594 21.03125 27.89453125 C21.40830078 28.80050049 21.78535156 29.70646973 22.17382812 30.63989258 C23 33 23 33 23 36 C24.15628906 36.18175781 24.15628906 36.18175781 25.3359375 36.3671875 C26.33882812 36.53476562 27.34171875 36.70234375 28.375 36.875 C29.37273438 37.03742187 30.37046875 37.19984375 31.3984375 37.3671875 C34 38 34 38 36 40 C36 41.32 36 42.64 36 44 C19.5 44 3 44 -14 44 C-14 32 -14 32 -12 28 C-11.46204291 26.21936202 -10.96419423 24.42627543 -10.5 22.625 C-9.46372816 18.69558342 -8.3479957 14.83660314 -7 11 C-5.68 11 -4.36 11 -3 11 C-2.01 7.37 -1.02 3.74 0 0 Z M10 16 C11 18 11 18 11 18 Z M11 19 C12 21 12 21 12 21 Z M12 21 C13 24 13 24 13 24 Z M13 24 C14 26 14 26 14 26 Z M-10 27 C-10 27.33 -10 27.66 -10 28 C-7.03 28 -4.06 28 -1 28 C-1 27.67 -1 27.34 -1 27 C-3.97 27 -6.94 27 -10 27 Z M14 27 C15 29 15 29 15 29 Z M15 29 C15 29.66 15 30.32 15 31 C14.34 30.67 13.68 30.34 13 30 C11.29297265 29.93003986 9.58331997 29.91559846 7.875 29.9375 C6.96492188 29.94652344 6.05484375 29.95554687 5.1171875 29.96484375 C4.06917969 29.98224609 4.06917969 29.98224609 3 30 C6.34939881 32.02558881 8.86962551 32.21738987 12.75 32.125 C13.73484375 32.10695312 14.7196875 32.08890625 15.734375 32.0703125 C16.48203125 32.04710937 17.2296875 32.02390625 18 32 C17.34 31.67 16.68 31.34 16 31 C15.67 30.34 15.34 29.68 15 29 Z " fill="#11B886" transform="translate(14,3)"/>
<path d="M0 0 C3.29714793 0.32971479 4.6226839 0.6226839 7 3 C7 3.99 7 4.98 7 6 C6.01 6.495 6.01 6.495 5 7 C5.495 7.433125 5.99 7.86625 6.5 8.3125 C8 10 8 10 8 13 C6.68 12.67 5.36 12.34 4 12 C3.67 13.65 3.34 15.3 3 17 C2.34 17 1.68 17 1 17 C0.67 15.35 0.34 13.7 0 12 C-1.32 12.33 -2.64 12.66 -4 13 C-3.42655063 10.13275314 -3.1385485 9.1385485 -1 7 C-1.66 6.67 -2.32 6.34 -3 6 C-2.42655063 3.13275314 -2.1385485 2.1385485 0 0 Z " fill="#12B786" transform="translate(41,22)"/>
<path d="M0 0 C3 0.125 3 0.125 4 1.125 C4.125 4.125 4.125 4.125 4 7.125 C3 8.125 3 8.125 0 8.25 C-3 8.125 -3 8.125 -4 7.125 C-4.125 4.125 -4.125 4.125 -4 1.125 C-3 0.125 -3 0.125 0 0 Z " fill="#11B785" transform="translate(37,7.875)"/>
</svg>
