<?xml version="1.0" encoding="UTF-8"?>
<svg version="1.1" xmlns="http://www.w3.org/2000/svg" width="50" height="50">
<path d="M0 0 C3.91691823 0.14181864 5.76921284 0.76333639 8.81762695 3.25341797 C11.04282354 6.03491371 13.00033802 8.85394104 14.89575195 11.86669922 C15.55575195 12.52669922 16.21575195 13.18669922 16.89575195 13.86669922 C16.52075195 15.99169922 16.52075195 15.99169922 15.89575195 17.86669922 C11.89575195 16.86669922 11.89575195 16.86669922 5.89575195 10.86669922 C5.56575195 18.45669922 5.23575195 26.04669922 4.89575195 33.86669922 C1.26575195 33.86669922 -2.36424805 33.86669922 -6.10424805 33.86669922 C-6.43424805 29.57669922 -6.76424805 25.28669922 -7.10424805 20.86669922 C-8.42424805 20.86669922 -9.74424805 20.86669922 -11.10424805 20.86669922 C-11.1580403 17.90812513 -11.19781897 14.950522 -11.22924805 11.99169922 C-11.24600586 11.14994141 -11.26276367 10.30818359 -11.2800293 9.44091797 C-11.28647461 8.63525391 -11.29291992 7.82958984 -11.29956055 6.99951172 C-11.315271 5.88406982 -11.315271 5.88406982 -11.33129883 4.74609375 C-10.65902526 -0.81859648 -4.33520623 0.11508021 0 0 Z " fill="#11B785" transform="translate(11.104248046875,13.13330078125)"/>
<path d="M0 0 C0.66 0 1.32 0 2 0 C2 2.97 2 5.94 2 9 C4.97 8.34 7.94 7.68 11 7 C11.33 8.65 11.66 10.3 12 12 C11.01 12.33 10.02 12.66 9 13 C9 16.3 9 19.6 9 23 C7.35 23 5.7 23 4 23 C3.67 21.35 3.34 19.7 3 18 C2.34 18 1.68 18 1 18 C1 19.65 1 21.3 1 23 C-0.65 23 -2.3 23 -4 23 C-5.38226016 20.23547967 -5.09525387 17.9538637 -5.0625 14.875 C-5.05347656 13.77929688 -5.04445312 12.68359375 -5.03515625 11.5546875 C-5.02355469 10.71164063 -5.01195312 9.86859375 -5 9 C-5.99 9 -6.98 9 -8 9 C-8 7.02 -8 5.04 -8 3 C-5.69 3 -3.38 3 -1 3 C-0.67 2.01 -0.34 1.02 0 0 Z " fill="#11B887" transform="translate(38,24)"/>
<path d="M0 0 C3.5 0.125 3.5 0.125 4.5 1.125 C4.625 4.625 4.625 4.625 4.5 8.125 C3.5 9.125 3.5 9.125 0 9.25 C-3.5 9.125 -3.5 9.125 -4.5 8.125 C-4.625 4.625 -4.625 4.625 -4.5 1.125 C-3.5 0.125 -3.5 0.125 0 0 Z " fill="#12B686" transform="translate(10.5,3.875)"/>
</svg>
