<?xml version="1.0" encoding="UTF-8"?>
<svg version="1.1" xmlns="http://www.w3.org/2000/svg" width="50" height="50">
<path d="M0 0 C3.3304366 0.30276696 5.4777515 0.60361714 8.171875 2.6484375 C10.37979704 5.48854235 11.78261223 8.34190514 13.25 11.625 C13.77078125 12.77226563 14.2915625 13.91953125 14.828125 15.1015625 C16 18 16 18 16 20 C16.63808594 20.20496094 17.27617188 20.40992187 17.93359375 20.62109375 C18.75988281 20.89050781 19.58617188 21.15992187 20.4375 21.4375 C21.26121094 21.70433594 22.08492187 21.97117187 22.93359375 22.24609375 C25 23 25 23 26 24 C26.04080783 25.99958364 26.04254356 28.00045254 26 30 C19.22893442 30.49950484 13.48113108 30.39224566 8 26 C5.9866528 23.4885591 4.49682169 20.84025882 3 18 C2.46375 17.23171875 1.9275 16.4634375 1.375 15.671875 C-0.35305436 12.31395118 -0.30122775 9.94051589 -0.1875 6.1875 C-0.16042969 5.02605469 -0.13335938 3.86460938 -0.10546875 2.66796875 C-0.07066406 1.78753906 -0.03585938 0.90710938 0 0 Z " fill="#11B786" transform="translate(24,20)"/>
<path d="M0 0 C7.26 0 14.52 0 22 0 C22 6.6 22 13.2 22 20 C14.74 20 7.48 20 0 20 C0 13.4 0 6.8 0 0 Z M6 6 C5.66666667 9 5.66666667 9 6 12 C7.88500271 14.31563087 7.88500271 14.31563087 11 14.25 C14.11499729 14.31563087 14.11499729 14.31563087 16 12 C16.33333333 9 16.33333333 9 16 6 C14.11499729 3.68436913 14.11499729 3.68436913 11 3.75 C7.88500271 3.68436913 7.88500271 3.68436913 6 6 Z " fill="#12B785" transform="translate(0,12)"/>
<path d="M0 0 C0 5.61 0 11.22 0 17 C-1.65 17 -3.3 17 -5 17 C-5 16.34 -5 15.68 -5 15 C-8.63 15 -12.26 15 -16 15 C-16 14.34 -16 13.68 -16 13 C-12.37 13 -8.74 13 -5 13 C-5 12.34 -5 11.68 -5 11 C-8.63 11 -12.26 11 -16 11 C-16 10.34 -16 9.68 -16 9 C-12.37 9 -8.74 9 -5 9 C-5 8.34 -5 7.68 -5 7 C-8.63 7 -12.26 7 -16 7 C-16 6.34 -16 5.68 -16 5 C-12.37 5 -8.74 5 -5 5 C-5 4.34 -5 3.68 -5 3 C-8.63 3 -12.26 3 -16 3 C-16 2.34 -16 1.68 -16 1 C-14.27111445 0.83044205 -12.54187557 0.66448486 -10.8125 0.5 C-9.84957031 0.4071875 -8.88664063 0.314375 -7.89453125 0.21875 C-5.26949639 0.0203668 -2.63252045 0 0 0 Z " fill="#12B786" transform="translate(22,33)"/>
<path d="M0 0 C3.24520887 0.08388262 4.71248744 0.76718005 7.23828125 2.8125 C7.92277344 3.534375 8.60726563 4.25625 9.3125 5 C10.00988281 5.721875 10.70726563 6.44375 11.42578125 7.1875 C13 9 13 9 13 10 C5.74 10 -1.52 10 -9 10 C-3 3 -3 3 0 0 Z " fill="#12B786" transform="translate(9,0)"/>
<path d="M0 0 C1.65 0 3.3 0 5 0 C5 5.61 5 11.22 5 17 C3.35 17 1.7 17 0 17 C0 11.39 0 5.78 0 0 Z " fill="#12B786" transform="translate(0,33)"/>
</svg>
