<?xml version="1.0" encoding="UTF-8"?>
<svg version="1.1" xmlns="http://www.w3.org/2000/svg" width="50" height="50">
<path d="M0 0 C1.4540625 0.0309375 1.4540625 0.0309375 2.9375 0.0625 C2.9375 1.3825 2.9375 2.7025 2.9375 4.0625 C1.9475 4.7225 0.9575 5.3825 -0.0625 6.0625 C-0.57210691 8.57635259 -0.57210691 8.57635259 -0.57421875 11.5078125 C-0.60966797 12.58417969 -0.64511719 13.66054687 -0.68164062 14.76953125 C-0.70419922 15.89746094 -0.72675781 17.02539062 -0.75 18.1875 C-0.78416016 19.32316406 -0.81832031 20.45882813 -0.85351562 21.62890625 C-0.93619502 24.44000579 -1.00527937 27.25078553 -1.0625 30.0625 C-2.3825 30.0625 -3.7025 30.0625 -5.0625 30.0625 C-5.0625 29.4025 -5.0625 28.7425 -5.0625 28.0625 C-10.3425 28.0625 -15.6225 28.0625 -21.0625 28.0625 C-21.0625 26.7425 -21.0625 25.4225 -21.0625 24.0625 C-15.7825 24.0625 -10.5025 24.0625 -5.0625 24.0625 C-5.0625 23.4025 -5.0625 22.7425 -5.0625 22.0625 C-10.3425 22.0625 -15.6225 22.0625 -21.0625 22.0625 C-21.0625 20.7425 -21.0625 19.4225 -21.0625 18.0625 C-15.7825 18.0625 -10.5025 18.0625 -5.0625 18.0625 C-5.0625 17.4025 -5.0625 16.7425 -5.0625 16.0625 C-10.3425 16.0625 -15.6225 16.0625 -21.0625 16.0625 C-21.0625 14.7425 -21.0625 13.4225 -21.0625 12.0625 C-15.7825 12.0625 -10.5025 12.0625 -5.0625 12.0625 C-5.0625 11.4025 -5.0625 10.7425 -5.0625 10.0625 C-10.3425 10.0625 -15.6225 10.0625 -21.0625 10.0625 C-21.0625 8.7425 -21.0625 7.4225 -21.0625 6.0625 C-15.7825 6.0625 -10.5025 6.0625 -5.0625 6.0625 C-4.7325 4.4125 -4.4025 2.7625 -4.0625 1.0625 C-3.0625 0.0625 -3.0625 0.0625 0 0 Z " fill="#11B786" transform="translate(39.0625,1.9375)"/>
<path d="M0 0 C0.82971817 -0.0033284 1.65943634 -0.0066568 2.51429749 -0.01008606 C4.26855922 -0.01514686 6.02283058 -0.01749465 7.77709961 -0.01733398 C10.45898309 -0.0195201 13.14045494 -0.03768355 15.82226562 -0.05664062 C17.52734234 -0.0595748 19.23242102 -0.06155943 20.9375 -0.0625 C21.73864731 -0.06968552 22.53979462 -0.07687103 23.36521912 -0.08427429 C27.22442857 -0.06846009 30.26896475 -0.03293512 33.53515625 2.16796875 C33.53515625 2.82796875 33.53515625 3.48796875 33.53515625 4.16796875 C18.35515625 4.16796875 3.17515625 4.16796875 -12.46484375 4.16796875 C-12.13484375 3.17796875 -11.80484375 2.18796875 -11.46484375 1.16796875 C-7.62783864 -0.11103295 -3.99887224 0.00554058 0 0 Z " fill="#0FB588" transform="translate(14.46484375,43.83203125)"/>
<path d="M0 0 C0.82971817 -0.0033284 1.65943634 -0.0066568 2.51429749 -0.01008606 C4.26855922 -0.01514686 6.02283058 -0.01749465 7.77709961 -0.01733398 C10.45898309 -0.0195201 13.14045494 -0.03768355 15.82226562 -0.05664062 C17.52734234 -0.0595748 19.23242102 -0.06155943 20.9375 -0.0625 C21.73864731 -0.06968552 22.53979462 -0.07687103 23.36521912 -0.08427429 C27.22442857 -0.06846009 30.26896475 -0.03293512 33.53515625 2.16796875 C33.53515625 2.82796875 33.53515625 3.48796875 33.53515625 4.16796875 C18.35515625 4.16796875 3.17515625 4.16796875 -12.46484375 4.16796875 C-12.13484375 3.17796875 -11.80484375 2.18796875 -11.46484375 1.16796875 C-7.62783864 -0.11103295 -3.99887224 0.00554058 0 0 Z " fill="#0FB588" transform="translate(14.46484375,37.83203125)"/>
<path d="M0 0 C0.82971817 -0.0033284 1.65943634 -0.0066568 2.51429749 -0.01008606 C4.26855922 -0.01514686 6.02283058 -0.01749465 7.77709961 -0.01733398 C10.45898309 -0.0195201 13.14045494 -0.03768355 15.82226562 -0.05664062 C17.52734234 -0.0595748 19.23242102 -0.06155943 20.9375 -0.0625 C21.73864731 -0.06968552 22.53979462 -0.07687103 23.36521912 -0.08427429 C27.22442857 -0.06846009 30.26896475 -0.03293512 33.53515625 2.16796875 C33.53515625 2.82796875 33.53515625 3.48796875 33.53515625 4.16796875 C18.35515625 4.16796875 3.17515625 4.16796875 -12.46484375 4.16796875 C-12.13484375 3.17796875 -11.80484375 2.18796875 -11.46484375 1.16796875 C-7.62783864 -0.11103295 -3.99887224 0.00554058 0 0 Z " fill="#0FB588" transform="translate(14.46484375,31.83203125)"/>
<path d="M0 0 C0.94875 0.04125 1.8975 0.0825 2.875 0.125 C2.875 1.445 2.875 2.765 2.875 4.125 C1.885 4.785 0.895 5.445 -0.125 6.125 C-0.63460691 8.63885259 -0.63460691 8.63885259 -0.63671875 11.5703125 C-0.67216797 12.64667969 -0.70761719 13.72304687 -0.74414062 14.83203125 C-0.76669922 15.95996094 -0.78925781 17.08789062 -0.8125 18.25 C-0.84666016 19.38566406 -0.88082031 20.52132813 -0.91601562 21.69140625 C-0.99869502 24.50250579 -1.06777937 27.31328553 -1.125 30.125 C-2.445 30.125 -3.765 30.125 -5.125 30.125 C-5.17439662 26.17403022 -5.21071755 22.2231797 -5.23486328 18.27197266 C-5.24988107 16.2658864 -5.27528981 14.25988676 -5.30078125 12.25390625 C-5.31044922 10.36865234 -5.31044922 10.36865234 -5.3203125 8.4453125 C-5.33078613 7.28273926 -5.34125977 6.12016602 -5.35205078 4.92236328 C-5.01865559 0.81479112 -4.0829328 0.16331731 0 0 Z " fill="#11B786" transform="translate(17.125,1.875)"/>
</svg>
