<?xml version="1.0" encoding="UTF-8"?>
<svg version="1.1" xmlns="http://www.w3.org/2000/svg" width="50" height="50">
<path d="M0 0 C0.99 0 1.98 0 3 0 C3.66 1.98 4.32 3.96 5 6 C16.88 6 28.76 6 41 6 C41.66 4.02 42.32 2.04 43 0 C43.99 0 44.98 0 46 0 C45.57025201 6.0164718 44.47699883 12.52300117 40 17 C35.20988893 17.31530872 30.41736604 17.35676671 25.61791992 17.4050293 C24.00279354 17.42660758 22.38778405 17.46070947 20.77319336 17.50756836 C18.44592034 17.57452482 16.1210686 17.60201701 13.79296875 17.62109375 C12.7130793 17.66283974 12.7130793 17.66283974 11.6113739 17.70542908 C9.55932617 17.69702148 9.55932617 17.69702148 6 17 C1.75324422 11.980246 -0.38800996 6.59616929 0 0 Z " fill="#11B988" transform="translate(2,31)"/>
<path d="M0 0 C0.79148437 -0.02578125 1.58296875 -0.0515625 2.3984375 -0.078125 C4.625 0.25 4.625 0.25 6.4140625 1.515625 C7.625 3.25 7.625 3.25 7.625 7.25 C8.945 7.91 10.265 8.57 11.625 9.25 C11.75 12.625 11.75 12.625 11.625 16.25 C9.01631631 18.85868369 7.87967636 18.50728913 4.25 18.515625 C3.18265625 18.51820312 2.1153125 18.52078125 1.015625 18.5234375 C-0.66273437 18.51183594 -0.66273437 18.51183594 -2.375 18.5 C-3.49390625 18.50773437 -4.6128125 18.51546875 -5.765625 18.5234375 C-6.83296875 18.52085938 -7.9003125 18.51828125 -9 18.515625 C-9.98226563 18.51336914 -10.96453125 18.51111328 -11.9765625 18.50878906 C-14.375 18.25 -14.375 18.25 -16.375 16.25 C-16.97836093 11.7678902 -16.71585038 9.78132559 -14.25 5.9375 C-11.26932613 3.15121791 -9.27944816 2.22611204 -5.375 1.25 C-3.79577594 -0.32922406 -2.18056126 0.042341 0 0 Z " fill="#11B785" transform="translate(27.375,1.75)"/>
<path d="M0 0 C1.32 0 2.64 0 4 0 C5.35439668 2.70879335 5.06501451 5.00933268 5 8 C3.02 8 1.04 8 -1 8 C-1.125 2.25 -1.125 2.25 0 0 Z " fill="#10B685" transform="translate(23,27)"/>
<path d="M0 0 C1.32 0 2.64 0 4 0 C5.35439668 2.70879335 5.06501451 5.00933268 5 8 C3.02 8 1.04 8 -1 8 C-1.125 2.25 -1.125 2.25 0 0 Z " fill="#10B685" transform="translate(33,23)"/>
<path d="M0 0 C1.32 0 2.64 0 4 0 C5.35439668 2.70879335 5.06501451 5.00933268 5 8 C3.02 8 1.04 8 -1 8 C-1.125 2.25 -1.125 2.25 0 0 Z " fill="#10B685" transform="translate(13,23)"/>
</svg>
