<?xml version="1.0" encoding="UTF-8"?>
<svg version="1.1" xmlns="http://www.w3.org/2000/svg" width="48" height="48">
<path d="M0 0 C1.2065625 0.0309375 1.2065625 0.0309375 2.4375 0.0625 C2.4375 1.0525 2.4375 2.0425 2.4375 3.0625 C4.7475 3.0625 7.0575 3.0625 9.4375 3.0625 C9.4375 2.4025 9.4375 1.7425 9.4375 1.0625 C10.4275 1.0625 11.4175 1.0625 12.4375 1.0625 C12.4375 1.7225 12.4375 2.3825 12.4375 3.0625 C13.7575 3.0625 15.0775 3.0625 16.4375 3.0625 C16.7675 2.0725 17.0975 1.0825 17.4375 0.0625 C19.77044775 0.02008277 22.10452567 0.02157063 24.4375 0.0625 C25.4375 1.0625 25.4375 1.0625 25.5625 4.5625 C25.4375 8.0625 25.4375 8.0625 24.4375 9.0625 C22.77132885 9.10313832 21.10361905 9.105221 19.4375 9.0625 C19.1075 8.4025 18.7775 7.7425 18.4375 7.0625 C15.40815509 6.40477572 15.40815509 6.40477572 12.4375 6.0625 C12.4375 8.0425 12.4375 10.0225 12.4375 12.0625 C13.076875 12.18625 13.71625 12.31 14.375 12.4375 C15.385625 12.64375 16.39625 12.85 17.4375 13.0625 C18.17355469 13.18496094 18.90960937 13.30742187 19.66796875 13.43359375 C25.98710775 14.5984595 25.98710775 14.5984595 28.5 17.1875 C28.809375 17.80625 29.11875 18.425 29.4375 19.0625 C25.30661768 20.24275209 23.2949681 19.85010717 19.4375 18.0625 C15.61993634 16.63091363 12.53123948 15.71160804 8.4375 16.0625 C8.1075 16.3925 7.7775 16.7225 7.4375 17.0625 C5.43791636 17.10330783 3.43704746 17.10504356 1.4375 17.0625 C1.4375 16.0725 1.4375 15.0825 1.4375 14.0625 C4.52559695 12.29787317 5.67062136 12.0625 9.4375 12.0625 C9.4375 10.0825 9.4375 8.1025 9.4375 6.0625 C8.1175 6.0625 6.7975 6.0625 5.4375 6.0625 C5.1075 7.0525 4.7775 8.0425 4.4375 9.0625 C2.10455225 9.10491723 -0.22952567 9.10342937 -2.5625 9.0625 C-3.5625 8.0625 -3.5625 8.0625 -3.6875 4.5625 C-3.52762642 0.08603967 -3.52762642 0.08603967 0 0 Z " fill="#11B786" transform="translate(11.5625,1.9375)"/>
<path d="M0 0 C2.97 0 5.94 0 9 0 C9 3.63 9 7.26 9 11 C10.11375 10.95875 11.2275 10.9175 12.375 10.875 C16 11 16 11 18 13 C20.78237655 12.59471099 20.78237655 12.59471099 23 11 C24.8125 10.8671875 24.8125 10.8671875 27 10.875 C27.721875 10.87242188 28.44375 10.86984375 29.1875 10.8671875 C31 11 31 11 32 12 C32.04063832 13.66617115 32.042721 15.33388095 32 17 C33.65 17 35.3 17 37 17 C36.505 14.525 36.505 14.525 36 12 C37.32 11.67 38.64 11.34 40 11 C40 13.97 40 16.94 40 20 C36.37 20 32.74 20 29 20 C28.505 17.525 28.505 17.525 28 15 C25.3094472 16.22007944 25.3094472 16.22007944 23 18 C16.56 18.47703704 16.56 18.47703704 14.3125 16.5625 C13.879375 16.046875 13.44625 15.53125 13 15 C10.89667109 14.28552357 10.89667109 14.28552357 9 14 C9 14.99 9 15.98 9 17 C6.03 17 3.06 17 0 17 C0 15.35 0 13.7 0 12 C0.99 12 1.98 12 3 12 C3 12.66 3 13.32 3 14 C3.99 14 4.98 14 6 14 C6 10.37 6 6.74 6 3 C5.01 3 4.02 3 3 3 C3 5.31 3 7.62 3 10 C2.01 10 1.02 10 0 10 C0 6.7 0 3.4 0 0 Z " fill="#11B886" transform="translate(3,13)"/>
<path d="M0 0 C1.875 0.3125 1.875 0.3125 4 1 C6.56687367 4.8503105 5.83288724 6.58569763 5 11 C2.66705225 11.04241723 0.33297433 11.04092937 -2 11 C-3 10 -3 10 -3.25 7.1875 C-2.97826344 3.72285889 -2.31309135 2.50584896 0 0 Z M1 5 C2 7 2 7 2 7 Z " fill="#11B887" transform="translate(36,35)"/>
</svg>
