<?xml version="1.0" encoding="UTF-8"?>
<svg version="1.1" xmlns="http://www.w3.org/2000/svg" width="66" height="66">
<path d="M0 0 C5.84179617 0.15690775 11.72139347 0.72139347 16 5 C16 6.32 16 7.64 16 9 C16.7528125 8.89171875 17.505625 8.7834375 18.28125 8.671875 C21 9 21 9 22.84375 11.265625 C23.3903125 12.25046875 23.936875 13.2353125 24.5 14.25 C26.84279108 18.4272407 28.82179415 21.51765417 33 24 C36.1127491 24.23295151 36.1127491 24.23295151 39 23 C41.14525148 20.89032772 41.14525148 20.89032772 42.75 18.1875 C43.60851563 16.87845703 43.60851563 16.87845703 44.484375 15.54296875 C45.76372496 13.39643055 46.92755843 11.25528154 48 9 C53.625 8.75 53.625 8.75 57 11 C58.72156756 15.4620581 57.52841199 19.91401307 56.8125 24.5 C56.69841797 25.35464844 56.58433594 26.20929687 56.46679688 27.08984375 C56.33982422 27.91613281 56.21285156 28.74242188 56.08203125 29.59375 C55.91537964 30.71813477 55.91537964 30.71813477 55.74536133 31.86523438 C54.68385336 34.90546552 53.64817685 36.12959292 51 38 C47.97094023 38.34890086 45.31696713 38.46754756 42.296875 38.390625 C41.45908508 38.38496521 40.62129517 38.37930542 39.75811768 38.37347412 C37.08815834 38.35112329 34.41955213 38.30093098 31.75 38.25 C29.93751941 38.22993325 28.12501774 38.21168278 26.3125 38.1953125 C21.87448041 38.15126294 17.43746944 38.08224566 13 38 C13.33 38.66 13.66 39.32 14 40 C32.315 40.495 32.315 40.495 51 41 C51.495 43.475 51.495 43.475 52 46 C47.05125584 48.47437208 39.39376406 47.31287565 33.88842773 47.35009766 C32.09304842 47.36665091 30.29773484 47.3939329 28.50268555 47.43212891 C25.91159959 47.48696923 23.32205732 47.50878148 20.73046875 47.5234375 C19.93134567 47.54610687 19.1322226 47.56877625 18.30888367 47.59213257 C14.05646769 47.57605796 12.46825502 47.36572549 8.99731445 44.65478516 C7 42 7 42 6.3125 39 C6.539375 38.01 6.76625 37.02 7 36 C8.54107422 35.03513672 8.54107422 35.03513672 10.11328125 34.05078125 C11.83333695 32.8109125 11.83333695 32.8109125 13 31 C13.33398847 26.95584361 12.60325012 23.16131815 11.875 19.1875 C11.70484375 18.11306641 11.5346875 17.03863281 11.359375 15.93164062 C10.93557671 13.28290133 10.47161942 10.64064385 10 8 C6.37 7.34 2.74 6.68 -1 6 C-1 1 -1 1 0 0 Z " fill="#11B886" transform="translate(5,7)"/>
<path d="M0 0 C2.77428577 1.26103899 4.48317435 2.31089914 6.3125 4.75 C7.61078622 8.99893671 7.88732774 12.31771619 5.76171875 16.34765625 C4.25402285 18.64848249 2.71378709 20.8483841 1 23 C0.52175781 23.60328125 0.04351562 24.2065625 -0.44921875 24.828125 C-2 26 -2 26 -3.95703125 25.98046875 C-6.77666153 24.62726187 -7.92039971 22.87690367 -9.6875 20.3125 C-10.59048828 19.03826172 -10.59048828 19.03826172 -11.51171875 17.73828125 C-13.15015066 14.72373856 -13.73515594 12.41044806 -14 9 C-12.74365054 5.44034319 -11.62302702 3.50515704 -8.6875 1.125 C-5.47713606 -0.21887328 -3.45252804 -0.431566 0 0 Z M-5 6 C-5.66 6.66 -6.32 7.32 -7 8 C-6.67958603 10.60280568 -6.67958603 10.60280568 -6 13 C-3.60280568 13.67958603 -3.60280568 13.67958603 -1 14 C-0.34 13.34 0.32 12.68 1 12 C0.67958603 9.39719432 0.67958603 9.39719432 0 7 C-2.39719432 6.32041397 -2.39719432 6.32041397 -5 6 Z " fill="#11B887" transform="translate(43,2)"/>
<path d="M0 0 C1.98 0 3.96 0 6 0 C6.625 2.375 6.625 2.375 7 5 C6.34 5.66 5.68 6.32 5 7 C2.375 6.625 2.375 6.625 0 6 C-1.125 2.25 -1.125 2.25 0 0 Z " fill="#0FBA8C" transform="translate(45,57)"/>
<path d="M0 0 C1.98 0 3.96 0 6 0 C6 1.98 6 3.96 6 6 C3.625 6.625 3.625 6.625 1 7 C0.34 6.34 -0.32 5.68 -1 5 C-0.625 2.375 -0.625 2.375 0 0 Z " fill="#11BB8B" transform="translate(24,57)"/>
</svg>
