<?xml version="1.0" encoding="UTF-8"?>
<svg version="1.1" xmlns="http://www.w3.org/2000/svg" width="50" height="50">
<path d="M0 0 C12.54 0 25.08 0 38 0 C38 14.52 38 29.04 38 44 C25.46 44 12.92 44 0 44 C0 29.48 0 14.96 0 0 Z M24 6 C24 6.66 24 7.32 24 8 C24.66 8 25.32 8 26 8 C26 7.34 26 6.68 26 6 C25.34 6 24.68 6 24 6 Z M30 6 C30 6.66 30 7.32 30 8 C30.66 8 31.32 8 32 8 C32 7.34 32 6.68 32 6 C31.34 6 30.68 6 30 6 Z M10 18 C9.67 18.99 9.34 19.98 9 21 C19.03582771 22.0379599 19.03582771 22.0379599 29 21 C27.19587357 17.73539027 26.16605307 16.11070205 23 14 C17.17297716 13.43609456 14.20989215 13.53496287 10 18 Z M9 24 C9.4214567 29.75167859 9.4214567 29.75167859 12.0625 32.375 C15.86510293 34.47856758 18.7465232 34.84210248 23 34 C26.02938694 32.54366876 26.02938694 32.54366876 28 30 C28.33 28.02 28.66 26.04 29 24 C22.4 24 15.8 24 9 24 Z " fill="#11B785" transform="translate(6,3)"/>
</svg>
